{
	"asset":{
		"generator":"Khronos glTF Blender I/O v4.3.47",
		"version":"2.0"
	},
	"extensionsUsed":[
		"KHR_materials_unlit"
	],
	"scene":0,
	"scenes":[
		{
			"name":"Scene",
			"nodes":[
				0
			]
		}
	],
	"nodes":[
		{
			"mesh":0,
			"name":"odm_textured_model_geo_03_IM.001",
			"rotation":[
				0.7071068286895752,
				0,
				0,
				0.7071068286895752
			]
		}
	],
	"materials":[
		{
			"doubleSided":true,
			"extensions":{
				"KHR_materials_unlit":{}
			},
			"name":"Material.003",
			"pbrMetallicRoughness":{
				"baseColorTexture":{
					"index":0
				},
				"metallicFactor":0,
				"roughnessFactor":0.9
			}
		}
	],
	"meshes":[
		{
			"name":"odm_textured_model_geo_03_IM.001",
			"primitives":[
				{
					"attributes":{
						"POSITION":0,
						"NORMAL":1,
						"TEXCOORD_0":2
					},
					"indices":3,
					"material":0
				}
			]
		}
	],
	"textures":[
		{
			"sampler":0,
			"source":0
		}
	],
	"images":[
		{
			"mimeType":"image/jpeg",
			"name":"Color Bake 16k",
			"uri":"textures/Color%20Bake%2016k.jpg"
		}
	],
	"accessors":[
		{
			"bufferView":0,
			"componentType":5126,
			"count":518975,
			"max":[
				77.50106811523438,
				210.5164337158203,
				4.5604705810546875
			],
			"min":[
				-57.72183609008789,
				-154.5015411376953,
				-22.950204849243164
			],
			"type":"VEC3"
		},
		{
			"bufferView":1,
			"componentType":5126,
			"count":518975,
			"type":"VEC3"
		},
		{
			"bufferView":2,
			"componentType":5126,
			"count":518975,
			"type":"VEC2"
		},
		{
			"bufferView":3,
			"componentType":5125,
			"count":2845728,
			"type":"SCALAR"
		}
	],
	"bufferViews":[
		{
			"buffer":0,
			"byteLength":6227700,
			"byteOffset":0,
			"target":34962
		},
		{
			"buffer":0,
			"byteLength":6227700,
			"byteOffset":6227700,
			"target":34962
		},
		{
			"buffer":0,
			"byteLength":4151800,
			"byteOffset":12455400,
			"target":34962
		},
		{
			"buffer":0,
			"byteLength":11382912,
			"byteOffset":16607200,
			"target":34963
		}
	],
	"samplers":[
		{
			"magFilter":9729,
			"minFilter":9987
		}
	],
	"buffers":[
		{
			"byteLength":27990112,
			"uri":"scene.bin"
		}
	]
}
